<?xml version="1.0" encoding="UTF-8" standalone="no"?>
<svg
   xmlns:dc="http://purl.org/dc/elements/1.1/"
   xmlns:cc="http://creativecommons.org/ns#"
   xmlns:rdf="http://www.w3.org/1999/02/22-rdf-syntax-ns#"
   xmlns:svg="http://www.w3.org/2000/svg"
   xmlns="http://www.w3.org/2000/svg"
   xmlns:sodipodi="http://sodipodi.sourceforge.net/DTD/sodipodi-0.dtd"
   xmlns:inkscape="http://www.inkscape.org/namespaces/inkscape"
   inkscape:export-ydpi="2048"
   inkscape:export-xdpi="2048"
   inkscape:export-filename="C:\Users\axiel\Downloads\scenery.png"
   inkscape:version="1.0 (4035a4fb49, 2020-05-01)"
   sodipodi:docname="scenery.svg"
   id="svg10"
   version="1.1"
   viewBox="0 0 24 24"
   enable-background="new 0 0 24 24">
  <metadata
     id="metadata16">
    <rdf:RDF>
      <cc:Work
         rdf:about="">
        <dc:format>image/svg+xml</dc:format>
        <dc:type
           rdf:resource="http://purl.org/dc/dcmitype/StillImage" />
      </cc:Work>
    </rdf:RDF>
  </metadata>
  <defs
     id="defs14" />
  <sodipodi:namedview
     inkscape:guide-bbox="true"
     showguides="true"
     inkscape:current-layer="svg10"
     inkscape:window-maximized="1"
     inkscape:window-y="-11"
     inkscape:window-x="-11"
     inkscape:cy="11.443281"
     inkscape:cx="10.882692"
     inkscape:zoom="90.509668"
     showgrid="false"
     id="namedview12"
     inkscape:window-height="1202"
     inkscape:window-width="2304"
     inkscape:pageshadow="2"
     inkscape:pageopacity="0"
     guidetolerance="10"
     gridtolerance="10"
     objecttolerance="10"
     borderopacity="1"
     bordercolor="#666666"
     pagecolor="#ffffff">
    <sodipodi:guide
       id="guide843"
       orientation="0,-1"
       position="16.810001,10.144109" />
    <sodipodi:guide
       id="guide845"
       orientation="1,0"
       position="7.19,11.10534" />
  </sodipodi:namedview>
  <path
     sodipodi:nodetypes="ccccccc"
     style="stroke-width:0.481"
     id="path4"
     d="M 15.367001,7.1899995 H 8.6330002 C 7.8370172,7.1923227 7.1923232,7.8370167 7.19,8.6329996 v 5.2228914 h 9.620001 V 8.6329996 c -0.0023,-0.7959829 -0.647017,-1.4406769 -1.443,-1.4430001 z"
     fill="#a2a6a5" />
  <path
     style="stroke-width:0.481"
     id="path6"
     d="m 11.09572,11.02838 c -0.571173,-0.54353 -1.4682667,-0.54353 -2.0394398,0 L 7.19,12.89466 V 15.367 c 0.00233,0.795978 0.647022,1.440672 1.4430002,1.443001 h 6.7340008 c 0.392073,-1.64e-4 0.767181,-0.159933 1.03896,-0.442521 z"
     fill="#646b69" />
  <path
     style="stroke-width:0.481"
     id="path8"
     d="m 16.810001,13.855891 -1.865756,-1.865756 c -0.564429,-0.561135 -1.476059,-0.561135 -2.040489,0 l -0.426897,0.426892 3.927005,3.948318 c 0.26076,-0.26684 0.406565,-0.625247 0.406137,-0.998345 z"
     fill="#c1c3c3" />
  <path
     style="display:inline;stroke-width:0.481"
     id="path2"
     d="m 12.721501,10.557 c -0.398475,0 -0.7215,-0.323025 -0.7215,-0.7215002 0,-0.3984749 0.323025,-0.7215001 0.7215,-0.7215001 0.398474,0 0.7215,0.3230252 0.7215,0.7215001 -4.33e-4,0.3982922 -0.323208,0.7210672 -0.7215,0.7215002 z"
     fill="#c1c3c3" />
</svg>
