<svg width="94" height="94" viewBox="0 0 94 94" fill="none" xmlns="http://www.w3.org/2000/svg">
<rect width="94" height="94" rx="47" fill="#5C6BC0"/>
<path d="M52.175 58.0544V44.6419H49.5823V39.119H60.102C63.0276 39.119 65.3993 36.7473 65.3993 33.8217H49.5823V28.3741H65.3244C68.25 28.3741 70.6217 26.0024 70.6217 23.0768H49.5823V17.6667H44.3727V23.0768H23.3333C23.3333 26.0024 25.705 28.3741 28.6306 28.3741H44.3727V33.8217H28.5557C28.5557 36.7473 30.9274 39.119 33.853 39.119H44.3727V44.6419H41.7805V58.0544" fill="white" fill-opacity="0.6"/>
<path d="M48.5708 61.8698C48.5708 61.8698 46.4228 64.5825 41.7323 67.2904C37.3248 69.8347 31.0329 70.8412 31.0329 70.8412C31.2766 73.7778 34.0163 75.8415 36.8517 75.0392C39.4418 74.3064 42.4609 73.2885 44.6786 72.0472C49.5384 69.327 52.3193 66.0265 52.3193 66.0265L48.5708 61.8698Z" fill="white" fill-opacity="0.6"/>
<path d="M39.3278 44.6486H33.693L30.9528 47.2916L28.2131 44.6486L17.6195 44.5358V44.6107C17.6195 47.5468 19.9997 49.927 22.9357 49.927C22.9357 49.927 23.0007 55.5647 20.6289 61.8879C18.8421 66.6528 15.0789 71.4224 15.0789 71.4224C17.2079 73.5514 20.7216 73.2868 22.3332 70.7436C23.8077 68.4167 25.4175 65.6061 26.2851 63.2271C28.2203 57.9208 28.2131 49.9308 28.2131 49.9308L30.9528 52.614L33.693 50.0635C33.693 50.0635 33.8778 55.3248 33.4464 57.5254C32.4808 62.4477 30.5935 65.525 30.5935 65.525C33.101 66.9728 36.313 66.0452 37.3168 63.3292C37.8364 61.9234 38.3223 60.3593 38.6006 58.8495C39.4605 54.1846 39.3278 44.6486 39.3278 44.6486Z" fill="white"/>
<path d="M54.556 44.6486H75.8353C75.8353 47.5658 73.4742 49.9328 70.5569 49.94L63.562 49.9573V53.3578H67.0156V57.4225H63.9867C63.9867 57.4225 64.083 58.7404 64.4086 59.956C64.805 61.4365 65.3435 62.4856 65.3435 62.4856L74.8525 57.9535C76.1063 60.4468 75.0659 63.4836 72.5466 64.6842L67.6281 67.0282C67.6281 67.0282 68.6436 68.6661 69.9269 70.2012C71.0921 71.595 72.4613 72.8835 72.4613 72.8835L72.2192 73.1256C70.339 75.0058 67.2437 75.2141 65.5711 73.1471C64.0228 71.2328 63.0485 69.2108 63.0485 69.2108L60.05 70.6416L57.7655 66.099L60.7635 64.6683C60.7635 64.6683 59.0971 60.5813 58.651 57.4808C58.1959 54.3206 58.2485 49.9269 58.2485 49.9269H54.556V44.6486Z" fill="white"/>
</svg>
